<svg height="350" width="688" version="1.1" id="Calque_1" xmlns="http://www.w3.org/2000/svg" xmlns:xlink="http://www.w3.org/1999/xlink" x="0px" y="0px" viewBox="156.3636 325.272 688 350" style="max-height: 500px" xml:space="preserve">
<style type="text/css">
	.st0{fill:#AF0000;}
	.st1{fill:#FDFDFD;}
	.st2{fill:#FAF7F6;}
</style>
<path class="st0" d="M817.06,616.35c-12.32,21.31-23.73,30.74-32.05,30.74c0,0,0,0-0.01,0c-5.82,0-9.37-2.79-10.84-8.52
	c-0.91-3.55,0.38-13.31,11.72-39.67c8.42-19.53,11.32-34.77,8.63-45.28c-2.08-8.11-6.28-15.09-12.47-20.75
	c-6.26-5.72-12.89-8.61-19.71-8.61c0,0-0.01,0-0.01,0c-13.52,0-27.02,12.69-40.98,38.63c7.18-20.28,10.96-30.96,11.33-32.04
	c18.42-49.5,32.29-86.66,41.63-111.48l1-2.65l-0.44,0.13c-8.19,2.41-21.76,3.1-30.16,1.54l-1.2-0.22l-20.08,58.68
	c-14.84,43.75-23.44,68.83-26.33,76.74c-3.23,10.39-5.94,19.26-8.08,26.53c-18.95,42.74-38.45,66.54-55.02,67.02
	c-6.43,0.16-10.26-2.84-11.83-8.97c-1.49-5.79-0.49-13.77,2.97-23.72l28.4-83.99l29.73-0.01l1.76-6.17l-29.57,0.01l15.19-43.94
	l-2.6,0.73c-3.96,1.12-20.77,1.12-25.33-0.01l-1.24-0.31l-15.5,43.52l-22.6,0.01l-2.59,6.17l23.25-0.01l-19.03,54.57l-3.17,6.66
	c-17,36.26-31.58,54.93-43.33,55.47c-7.57,0.35-15.35-2.38-15.74-8.27c-0.26-3.92-0.15-19.32,12.08-52.71l22.14-60.45l-2.37,0.37
	c-6.49,1.01-22.59,1.03-27.36,0.02l-1.22-0.26l-13.11,38.19c-19,55.15-35.99,83.11-50.5,83.12c0,0,0,0,0,0
	c-5.05,0-8.26-2.93-9.81-8.97c-1.68-6.53-0.98-14.21,2.05-22.8l32.3-89.62l-2.33,0.34c-7.03,1.03-21.63,1.04-26.94,0.02l-1.2-0.23
	l-24.12,69.38c-0.04,0.13-0.09,0.25-0.13,0.38c-2.65,7.63-6.4,14.87-11.64,21.01c-2.42,2.84-4.84,5.48-7.24,7.89
	c-8.63,8.49-16.23,13.38-23.27,14.95c-2.27,0.53-4.4,0.25-6.12-0.83c-2.16-1.36-3.73-3.95-4.53-7.51c-1.29-5.69-0.5-12.39,0.39-19.8
	l0.8-6.72c2.6-21.67,5.28-44.07,5.47-66.46c0.11-13.49-1.6-30.2-15.92-39.77c-6.47-4.33-12.74-7.43-18.72-9.26
	c9.94-2.76,22.07-6.36,31.14-10.87c10.94-5.33,20.55-11.92,28.57-19.57c8.28-7.81,14.5-16.96,18.49-27.17
	c4.16-10.42,4.8-22.15,1.89-34.85c-2.64-11.44-8.47-21.02-17.33-28.48c-9.11-7.66-20.49-13.35-33.87-16.93l-7.91-1.83
	c-4.45-0.95-9.1-1.7-13.82-2.21c-5.24-0.56-15.04-0.73-20.1-0.64c-7.11,0.09-14.16,0.84-20.91,2.21c-0.29,0.05-0.69,0.11-0.83,0.19
	c-5.45,1.12-10.83,2.73-16.03,4.28c-5.46,1.64-11.11,3.33-16.7,4.41c-13.08,1.74-28.45-0.24-40.09-7.06l-1.37-0.87l-0.4,1.47
	c8.51,11.56,23.14,17.94,39.42,16.93c0.4,0,0.85-0.05,1.4-0.11c5.3-0.8,10.7-1.78,16.16-2.77c10.25-1.85,20.84-3.76,31.24-4.61
	c1.92-0.15,13.35-0.83,17.71-0.06c0.74,0.09,1.47,0.21,2.21,0.34l1.15,0.19c18.16,2.91,31.15,7.9,40.88,15.71
	c10.72,8.61,14.96,20.72,12.98,37.03c-1.99,16.91-9.55,33.44-21.31,46.55c-7.42,8.29-19.89,15.82-37.05,22.37
	c-5.84,2.16-10.12,3.63-13.44,4.62l-1.91,0.55c-2.13,0.6-13.87,2.19-21.38,3.17c1.68-6.98,3.39-13.96,5.1-20.94
	c4.7-19.04,8.75-35,13.18-50.97c1.96-7.08,4.41-15.9,7.6-24.07c2.73-6.97,6.02-14.34,10.35-23.18l0.85-1.72l-9.54-1.47l-0.49,0.42
	c-15.48,13.2-34.04,48.1-42.38,72.87c-7.42,22.12-13,45.19-18.39,67.49l-0.88,3.64c-4.34,17.86-8.43,33.61-12.49,48.13
	c-6.01,21.52-14.82,41.86-26.19,60.45l-0.54,0.9c-2.61,4.28-6.18,10.14-9.39,13.37c-6.24,6.27-13.31,9.04-23.65,9.26
	c-7.68,0.19-16.18-7.08-19.98-14.05c0.08-0.05,0.16-0.1,0.25-0.16l0.88-0.58c0.33-0.23,8.21-5.75,10.83-10.42
	c5.37-9.69,4.85-19.34-1.37-25.19c-6.26-5.9-16.09-6.59-23.37-1.67c-5.57,3.78-8.19,7.95-9.32,14.89c-1,6.99,0.24,13.89,3.66,20.5
	c4.22,8.21,12.9,15.53,19.62,19.14c6.69,3.67,15.64,5.64,24.53,5.64c4.29,0,8.57-0.46,12.57-1.41c11.65-2.73,16.49-5.13,25.89-12.83
	c4.2-3.46,8.06-7.54,12.15-12.85c9.48-12.44,17.17-26.33,23.48-42.44c8.54-21.73,14.19-39.3,18.91-58.76
	c0.68-2.75,1.33-5.53,1.98-8.3l3.05-12.81c0.45-1.87,0.89-3.7,1.32-5.53c6.62-1.14,16.45-2.78,18.31-2.91
	c1.94-0.21,6.96-0.16,9.96-0.14l2.05,0.01c3.14-0.17,5.98,0.21,8.71,1.15c7.27,2.59,10.39,11.03,10.84,17.48
	c0.34,4.77-0.38,9.63-1.08,14.33c-1.29,8.77-2.77,17.67-4.21,26.27c-2.25,13.5-4.58,27.46-6.24,41.3
	c-2.33,19.41-2.83,42.97,14.17,52.92c4.46,2.61,8.74,3.85,13.76,3.85c2.27,0,4.7-0.26,7.36-0.75c12.25-2.29,23.48-9.03,35.34-21.21
	c3.75-3.85,7.47-8.07,11.16-12.63c0.15,2.63,0.51,5.17,1.14,7.59c1.97,7.68,6.03,14.25,12.07,19.55c6.09,5.33,12.7,8.04,19.66,8.04
	c6.76,0,13.05-3.56,18.67-10.55c4.57-5.47,11.05-15.89,19.32-31.06c-0.85,5.36-0.79,9.85,0.16,13.55
	c1.97,7.68,6.09,14.33,12.24,19.77c5.67,5.01,11.72,8.37,22.08,8.37c1.07,0,2.18-0.03,3.33-0.11c11.44-0.72,23.57-11.62,36.08-32.4
	c1.79-2.96,3.39-5.65,4.91-8.23c-0.28,4.75,0.05,9.12,1.05,13.02c2.01,7.84,6.21,14.46,12.47,19.68c6.3,5.25,13.22,7.9,20.6,7.9
	c0.02,0,0.04,0,0.06,0c15.65-0.03,31.31-13.49,46.66-40l-11.97,39.23l2.25-0.38c5.21-0.86,19.82-0.87,24.43-0.01l1.24,0.23l0.37-1.2
	c14.3-46.47,26.97-78.46,37.66-95.09c10.88-17.03,20.71-25.66,29.22-25.67c0,0,0,0,0.01,0c5.51,0,8.82,2.5,10.14,7.63
	c0.8,3.14-1.14,13.58-14.99,45.47c-7.26,17.01-9.55,31.04-6.82,41.71c2.05,7.98,6.19,14.71,12.31,20
	c6.16,5.33,13.12,8.03,20.69,8.03c0,0,0.01,0,0.01,0c13.39,0,21.74-11.98,35.43-35.34L817.06,616.35z"></path>
</svg>